<?xml version="1.0" encoding="utf-8"?>
<!-- Generator: Adobe Illustrator 21.0.2, SVG Export Plug-In . SVG Version: 6.00 Build 0)  -->
<svg version="1.1" id="Layer_1" xmlns="http://www.w3.org/2000/svg" xmlns:xlink="http://www.w3.org/1999/xlink" x="0px" y="0px"
	 viewBox="0 0 472 200" style="enable-background:new 0 0 472 200;" xml:space="preserve">
<style type="text/css">
	.st0{fill:#F9001E;}
	.st1{enable-background:new    ;}
	.st2{fill:#FFFFFF;}
</style>
<g transform="translate(0,-952.36218)">
	<path class="st0" d="M363.2,965.9c-45.2,0-81.9,36.7-81.9,81.9c0,45.2,36.7,81.9,81.9,81.9c21.6,0,41.2-8.4,55.9-22.1l43.2,43.2
		c1.1,1.1,2.9,1.1,3.9,0c1.1-1.1,1.1-2.8,0-3.8l-43.2-43.2c13.7-14.6,22.1-34.4,22.1-56C445.1,1002.6,408.4,965.9,363.2,965.9z"/>
</g>
<g class="st1">
	<path class="st2" d="M325.5,85.1l-10.8-12.6l17.5-18.6h19.2V134h-25.9V85.1z M339.8,124.4V63.5h-3.4l-9.2,9.8l1.8,2l7.7-7.8v56.8
		H339.8z"/>
	<path class="st2" d="M357.7,109.1c1.8,0.6,3.6,1,5.5,1.3c1.6,0.4,3.4,0.7,5.5,1s4.1,0.4,6.2,0.4c3.7,0,5.5-1.4,5.5-4.1
		c0-1-0.6-2.1-1.7-3.2c-1.1-1.1-2.5-2.3-4.3-3.6c-1.7-1.3-3.6-2.8-5.5-4.4c-2-1.6-3.8-3.4-5.5-5.5c-1.7-2.1-3.1-4.4-4.3-7
		c-1.1-2.6-1.7-5.6-1.7-8.9c0-3.8,0.7-7.1,2-10c1.4-2.9,3.2-5.3,5.6-7.2s5.2-3.4,8.5-4.4c3.2-1,6.7-1.5,10.4-1.5
		c1.9,0,3.8,0.1,5.8,0.3c1.9,0.2,3.6,0.4,5.2,0.5c1.8,0.2,3.5,0.5,5.2,0.7v22.5c-0.6-0.1-1.4-0.2-2.2-0.2c-0.6-0.1-1.4-0.2-2.2-0.2
		c-0.8-0.1-1.6-0.1-2.5-0.1c-0.5,0-1.1,0-1.8,0.1c-0.7,0-1.4,0.1-2,0.3c-0.6,0.2-1.2,0.4-1.7,0.8c-0.5,0.4-0.7,1-0.7,1.7
		c0,0.6,0.5,1.4,1.6,2.4s2.4,2.1,4,3.4c1.6,1.3,3.3,2.8,5.2,4.4c1.9,1.7,3.6,3.6,5.2,5.8s2.9,4.6,4,7.3c1.1,2.7,1.6,5.8,1.6,9.1
		c0,3.5-0.6,6.8-1.7,9.9c-1.1,3.1-2.9,5.8-5.2,8c-2.4,2.3-5.4,4.1-9.1,5.4c-3.7,1.3-8,2-13.1,2c-3,0-5.9-0.1-8.5-0.4
		c-2.6-0.3-4.9-0.6-6.9-1c-2.3-0.4-4.4-0.9-6.4-1.4V109.1z M367.7,123.5c1.1,0.2,2.3,0.4,3.6,0.6c1.1,0.2,2.3,0.3,3.5,0.4
		c1.2,0.1,2.5,0.2,3.8,0.2c2.2,0,4.4-0.3,6.5-0.8c2.1-0.5,4-1.4,5.7-2.6c1.7-1.2,3-2.7,4-4.6c1-1.9,1.5-4.2,1.5-6.9
		c0-2.3-0.6-4.5-1.7-6.6c-1.2-2.1-2.6-4.1-4.4-6c-1.8-1.9-3.7-3.8-5.8-5.5c-2-1.8-4-3.5-5.8-5.3c-1.8-1.8-3.3-3.6-4.4-5.4
		c-1.2-1.8-1.7-3.7-1.7-5.6c0-2.9,0.9-5.1,2.8-6.7c1.8-1.6,4.8-2.3,8.9-2.3c0.6,0,1.3,0,2,0.1c0.7,0,1.3,0.1,2,0.2
		c0.6,0.1,1.3,0.1,1.9,0.1v-3.1c-0.6,0-1.2,0-1.8-0.1c-0.6-0.1-1.2-0.1-1.9-0.2c-0.7,0-1.4-0.1-2.1-0.1c-4.3,0-7.9,1-10.7,2.9
		c-2.8,2-4.2,5-4.2,9.2c0,2.2,0.6,4.3,1.7,6.3c1.2,2,2.6,3.9,4.4,5.8c1.8,1.9,3.7,3.7,5.8,5.5c2,1.8,4,3.5,5.8,5.3s3.3,3.7,4.4,5.6
		c1.2,1.9,1.7,3.9,1.7,6c0,3.8-1.3,6.8-3.9,8.8c-2.6,2-6.2,3-10.8,3c-2.7,0-5.2-0.2-7.4-0.6c-1.2-0.2-2.4-0.4-3.5-0.6V123.5z"/>
</g>
<g class="st1">
	<path d="M27.1,66.9H5V35.4h83.8v31.5H66.7v88.5H27.1V66.9z M49.2,141V54.1H75v-4.3H18.8v4.3h25.7V141H49.2z"/>
	<path d="M89.5,0.5h23.7l14.9,27.9h-20.1L89.5,0.5z M95.1,35.4h40.6v120H95.1V35.4z M108.8,7.7h-5.4l8.8,13.5h3.8L108.8,7.7z
		 M117.8,141V49.8h-4.7V141H117.8z"/>
	<path d="M148.3,35.4H180l31.3,46l31.1-46h31.7v120h-38.3v-43.2l-24.5,36l-24.6-36v43.2h-38.3V35.4z M171,141V58.4l40.3,58.6
		l40.1-58.6V141h4.7V49.8h-4.7L211.3,109L171,49.8h-4.7V141H171z"/>
</g>
<g transform="translate(0,-952.36218)">
	<path class="st2" d="M363,973.3c-41.2,0-74.6,33.4-74.6,74.6c0,41.2,33.4,74.6,74.6,74.6c19.7,0,37.6-7.6,50.9-20.1l3.6-3.5
		c12.5-13.3,20.1-31.3,20.1-51C437.6,1006.7,404.2,973.3,363,973.3z M362.8,974.5c40.5,0,73.3,32.8,73.3,73.3
		c0,40.5-32.8,73.3-73.3,73.3s-73.3-32.8-73.3-73.3C289.6,1007.3,322.4,974.5,362.8,974.5z"/>
</g>
</svg>
